# xmcd
#
# Track frame offsets: 
#        150
#        16060
#        37107
#        54293
#        71422
#        91879
#        110517
#        130559
#        149057
#        173223
#        191867
#
# Disc length: 2847 seconds
#
# Revision: 0
# Processed by: cddbd v1.5.2PL0 Copyright (c) Steve Scherf et al.
# Submitted via: ExactAudioCopyFreeDBPlugin 1.0
#
DISCID=960b1d0b
DTITLE=Rob Heron And The Tea Pad Orchestra - Talk About The Weather
DYEAR=1900
DGENRE=Blues
TTITLE0=Drinking Coffee Rag
TTITLE1=Soleil
TTITLE2=Junk On The Radio
TTITLE3=Crazy Country Fool
TTITLE4=Hey, Mr. Landlord
TTITLE5=Small Town Blues
TTITLE6=Killed By Love
TTITLE7=High-Speed Train
TTITLE8=I'm Feelin' Blue
TTITLE9=Penny Drop Mambo
TTITLE10=Don't Kick The Oven Door
EXTD=
EXTT0=
EXTT1=
EXTT2=
EXTT3=
EXTT4=
EXTT5=
EXTT6=
EXTT7=
EXTT8=
EXTT9=
EXTT10=
PLAYORDER=
